<svg width="64" height="64" viewBox="0 0 64 64" fill="none" xmlns="http://www.w3.org/2000/svg">
  <rect width="64" height="64" rx="12" fill="#1E3A8A"/>
  <path d="M36 20H28C26.9391 20 25.9217 20.4214 25.1716 21.1716C24.4214 21.9217 24 22.9391 24 24V40C24 41.0609 24.4214 42.0783 25.1716 42.8284C25.9217 43.5786 26.9391 44 28 44H36C37.0609 44 38.0783 43.5786 38.8284 42.8284C39.5786 42.0783 40 41.0609 40 40V24C40 22.9391 39.5786 21.9217 38.8284 21.1716C38.0783 20.4214 37.0609 20 36 20Z" stroke="white" stroke-width="2" stroke-linecap="round" stroke-linejoin="round"/>
  <path d="M30 20V16" stroke="white" stroke-width="2" stroke-linecap="round" stroke-linejoin="round"/>
  <path d="M34 20V16" stroke="white" stroke-width="2" stroke-linecap="round" stroke-linejoin="round"/>
  <path d="M24 28H40" stroke="white" stroke-width="2" stroke-linecap="round" stroke-linejoin="round"/>
  <path d="M32 36H36" stroke="white" stroke-width="2" stroke-linecap="round" stroke-linejoin="round"/>
  <path d="M28 36H28.004" stroke="white" stroke-width="2" stroke-linecap="round" stroke-linejoin="round"/>
  <path d="M32 32H36" stroke="white" stroke-width="2" stroke-linecap="round" stroke-linejoin="round"/>
  <path d="M28 32H28.004" stroke="white" stroke-width="2" stroke-linecap="round" stroke-linejoin="round"/>
</svg>